HIERARCHY
ROOT joint_Root
{
	OFFSET 0.0 0.0 0.0
	CHANNELS 6 Xposition Yposition Zposition Zrotation Xrotation Yrotation 
	JOINT Hips
	{
		OFFSET 4.5925 91.4895 -427.239
		CHANNELS 6 Xposition Yposition Zposition Zrotation Xrotation Yrotation 
		JOINT Spine
		{
			OFFSET 15.7357 0.0 0.0
			CHANNELS 6 Xposition Yposition Zposition Zrotation Xrotation Yrotation 
			JOINT Chest
			{
				OFFSET 8.98455 -0.406207 0.0
				CHANNELS 6 Xposition Yposition Zposition Zrotation Xrotation Yrotation 
				JOINT Neck
				{
					OFFSET 16.3773 0.0 0.0
					CHANNELS 6 Xposition Yposition Zposition Zrotation Xrotation Yrotation 
					JOINT Head
					{
						OFFSET 6.45672 0.0 0.0
						CHANNELS 6 Xposition Yposition Zposition Zrotation Xrotation Yrotation 
						End Site
						{
							OFFSET 0.0 0.0 0.0
						}
					}
				}
				JOINT Shoulder_L
				{
					OFFSET 12.9942 -0.242716 4.98039
					CHANNELS 6 Xposition Yposition Zposition Zrotation Xrotation Yrotation 
					JOINT UpperArm_L
					{
						OFFSET 5.34809 0.0 0.0
						CHANNELS 6 Xposition Yposition Zposition Zrotation Xrotation Yrotation 
						JOINT LowerArm_L
						{
							OFFSET 24.3286 1.87007e-05 0.0
							CHANNELS 6 Xposition Yposition Zposition Zrotation Xrotation Yrotation 
							JOINT Hand_L
							{
								OFFSET 22.2916 0.0 0.0
								CHANNELS 6 Xposition Yposition Zposition Zrotation Xrotation Yrotation 
								End Site
								{
									OFFSET 0.0 0.0 0.0
								}
							}
						}
					}
				}
				JOINT Shoulder_R
				{
					OFFSET 12.9945 -0.242716 -4.98039
					CHANNELS 6 Xposition Yposition Zposition Zrotation Xrotation Yrotation 
					JOINT UpperArm_R
					{
						OFFSET -5.34813 0.0 0.0
						CHANNELS 6 Xposition Yposition Zposition Zrotation Xrotation Yrotation 
						JOINT LowerArm_R
						{
							OFFSET -24.3289 0.000322201 0.0
							CHANNELS 6 Xposition Yposition Zposition Zrotation Xrotation Yrotation 
							JOINT Hand_R
							{
								OFFSET -22.2915 -0.000108084 0.0
								CHANNELS 6 Xposition Yposition Zposition Zrotation Xrotation Yrotation 
								End Site
								{
									OFFSET 0.0 0.0 0.0
								}
							}
						}
					}
				}
			}
		}
		JOINT UpperLeg_L
		{
			OFFSET -2.19248 -6.46944 0.0
			CHANNELS 6 Xposition Yposition Zposition Zrotation Xrotation Yrotation 
			JOINT LowerLeg_L
			{
				OFFSET 39.0811 0.0 -1.23785e-05
				CHANNELS 6 Xposition Yposition Zposition Zrotation Xrotation Yrotation 
				JOINT Foot_L
				{
					OFFSET 40.9854 0.0 -1.26872e-05
					CHANNELS 6 Xposition Yposition Zposition Zrotation Xrotation Yrotation 
					JOINT Toes_L
					{
						OFFSET 11.7543 0.0 0.0
						CHANNELS 6 Xposition Yposition Zposition Zrotation Xrotation Yrotation 
						End Site
						{
							OFFSET 0.0 0.0 0.0
						}
					}
				}
			}
		}
		JOINT UpperLeg_R
		{
			OFFSET -2.19251 6.46944 0.0
			CHANNELS 6 Xposition Yposition Zposition Zrotation Xrotation Yrotation 
			JOINT LowerLeg_R
			{
				OFFSET -39.0811 -0.00228153 -0.0401928
				CHANNELS 6 Xposition Yposition Zposition Zrotation Xrotation Yrotation 
				JOINT Foot_R
				{
					OFFSET -40.9854 0.0 0.0
					CHANNELS 6 Xposition Yposition Zposition Zrotation Xrotation Yrotation 
					JOINT Toes_R
					{
						OFFSET -11.7543 0.0 0.0
						CHANNELS 6 Xposition Yposition Zposition Zrotation Xrotation Yrotation 
						End Site
						{
							OFFSET 0.0 0.0 0.0
						}
					}
				}
			}
		}
	}
}
MOTION
Frames:	4
Frame Time:	0.0333333
0.000000 0.000000 0.000000 0.000000 0.000000 -0.000000 -163.523000 89.843400 176.800000 -46.970000 83.760000 130.130000 15.735700 0.000005 -0.000001 52.353200 82.184600 -50.820800 8.984550 -0.406207 -0.000000 4.794420 -9.569470 3.468340 16.377300 -0.000001 -0.000001 0.275335 -4.964410 0.968101 6.456720 -0.000001 -0.000000 -4.436820 -0.235820 1.537910 12.994200 -0.242716 4.980390 -87.875700 -7.037830 -73.155000 5.348090 -0.000007 -0.000001 -61.577700 25.596500 -50.023900 24.328600 0.000019 0.000005 -13.373300 4.292120 -107.476000 22.291600 -0.000001 0.000005 3.361710 5.487130 -6.024170 12.994500 -0.242716 -4.980390 90.326700 -1.040220 -72.581500 -5.348130 -0.000001 -0.000004 -60.824100 43.840400 27.716200 -24.328900 0.000322 -0.000009 -23.074800 -1.291520 -86.973600 -22.291500 -0.000108 -0.000004 6.155280 5.553110 -8.852220 -2.192480 -6.469440 -0.000000 -177.914000 -5.327330 -5.467940 39.081100 -0.000007 -0.000012 0.028589 -0.055679 27.178400 40.985400 -0.000006 -0.000013 8.252550 0.993027 -76.981300 11.754300 -0.000000 0.000003 -2.129660 -2.682810 -17.549400 -2.192510 6.469440 -0.000001 -178.010000 -1.479390 150.806000 -39.081100 -0.002282 -0.040193 -0.019100 0.006757 73.047500 -40.985400 0.000008 0.000006 4.682280 -3.408330 -56.722800 -11.754300 -0.000006 -0.000006 -0.019881 -0.166631 -23.380800
0.000000 0.000000 0.000000 0.000000 0.000000 -0.000000 -160.302000 90.904000 177.259000 -41.873700 82.658600 123.295000 15.735700 0.000005 -0.000001 46.772200 82.225500 -44.652800 8.984550 -0.406207 -0.000000 3.821810 -10.708600 4.601980 16.377300 -0.000001 -0.000001 0.163954 -4.890800 1.120550 6.456720 -0.000001 -0.000000 -4.591800 0.455573 1.657850 12.994200 -0.242716 4.980390 -87.156000 -9.643400 -73.481500 5.348090 -0.000007 -0.000001 -60.800600 23.966300 -54.101700 24.328600 0.000019 0.000005 -11.988800 5.018290 -112.391000 22.291600 -0.000001 0.000005 2.732000 5.480180 -5.753180 12.994500 -0.242716 -4.980390 91.448100 -4.511220 -72.181400 -5.348130 -0.000001 -0.000004 -62.413400 42.529100 30.848200 -24.328900 0.000322 -0.000009 -20.796900 0.466134 -91.229800 -22.291500 -0.000108 -0.000004 6.247110 5.545380 -8.490190 -2.192480 -6.469440 -0.000000 -175.609000 -8.564810 -2.559890 39.081100 -0.000007 -0.000012 0.007835 -0.020098 21.298400 40.985400 -0.000006 -0.000013 8.060210 4.942890 -72.269300 11.754300 -0.000000 0.000003 -2.096840 -2.467670 -19.872100 -2.192510 6.469440 -0.000001 -176.560000 -3.636790 145.477000 -39.081100 -0.002282 -0.040193 -0.020805 0.010134 67.066500 -40.985400 0.000008 0.000006 6.399230 -6.330830 -59.809500 -11.754300 -0.000006 -0.000006 -0.020094 -0.167812 -23.429400
0.000000 0.000000 0.000000 0.000000 0.000000 -0.000000 -157.070000 91.220600 177.599000 -34.936600 83.021200 115.211000 15.735700 0.000005 -0.000001 44.061400 82.339900 -41.834600 8.984550 -0.406207 -0.000000 3.160030 -11.087500 4.766410 16.377300 -0.000001 -0.000001 0.153923 -4.365170 1.249060 6.456720 -0.000001 -0.000000 -5.038730 0.862613 2.387330 12.994200 -0.242716 4.980390 -86.780800 -11.013300 -73.594300 5.348090 -0.000007 -0.000001 -59.149200 22.791400 -56.805400 24.328600 0.000019 0.000005 -10.712700 5.308110 -116.062000 22.291600 -0.000001 0.000005 1.747450 5.466790 -5.249250 12.994500 -0.242716 -4.980390 92.165100 -6.892600 -72.513000 -5.348130 -0.000001 -0.000004 -63.879700 40.301200 32.778300 -24.328900 0.000322 -0.000009 -19.034000 1.524930 -94.411400 -22.291500 -0.000108 -0.000004 6.248360 5.534340 -7.987780 -2.192480 -6.469440 -0.000000 -174.690000 -11.750800 -0.097687 39.081100 -0.000007 -0.000012 0.001133 -0.003471 18.081500 40.985400 -0.000006 -0.000013 7.778120 7.212010 -69.066800 11.754300 -0.000000 0.000003 -0.817886 -0.952172 -22.029200 -2.192510 6.469440 -0.000001 -176.339000 -4.775030 141.856000 -39.081100 -0.002282 -0.040193 -0.007085 0.006295 58.551600 -40.985400 0.000008 0.000006 6.046890 -6.297290 -61.876200 -11.754300 -0.000006 -0.000006 -0.020659 -0.170912 -23.557200
0.000000 0.000000 0.000000 0.000000 0.000000 -0.000000 -153.710000 90.714300 177.810000 -28.245600 84.384500 108.254000 15.735700 0.000005 -0.000001 43.151900 82.335100 -41.251200 8.984550 -0.406207 -0.000000 2.959470 -11.253000 4.098710 16.377300 -0.000001 -0.000001 -0.000767 -3.716510 1.389690 6.456720 -0.000001 -0.000000 -5.639900 1.223940 3.267510 12.994200 -0.242716 4.980390 -86.681600 -11.160700 -73.324200 5.348090 -0.000007 -0.000001 -56.981400 22.578100 -58.364100 24.328600 0.000019 0.000005 -8.499230 4.586600 -118.154000 22.291600 -0.000001 0.000005 0.832835 5.455200 -4.825620 12.994500 -0.242716 -4.980390 92.254100 -7.467810 -73.151000 -5.348130 -0.000001 -0.000004 -63.899900 37.916700 33.223200 -24.328900 0.000322 -0.000009 -17.834800 2.212980 -96.844200 -22.291500 -0.000108 -0.000004 6.921130 5.532110 -7.886790 -2.192480 -6.469440 -0.000000 -174.644000 -14.819700 1.774400 39.081100 -0.000007 -0.000012 -0.002597 0.007768 18.485300 40.985400 -0.000006 -0.000013 7.244050 9.310600 -67.751000 11.754300 -0.000000 0.000003 -0.027417 -0.205385 -24.985100 -2.192510 6.469440 -0.000001 -176.100000 -3.496230 140.214000 -39.081100 -0.002282 -0.040193 0.003707 -0.000401 48.516500 -40.985400 0.000008 0.000006 5.456910 -3.395850 -63.091700 -11.754300 -0.000006 -0.000006 -0.022126 -0.178794 -23.882200
